<?xml version="1.0" standalone="no"?><!DOCTYPE svg PUBLIC "-//W3C//DTD SVG 1.1//EN" "http://www.w3.org/Graphics/SVG/1.1/DTD/svg11.dtd"><svg t="1711847937213" class="icon" viewBox="0 0 1024 1024" version="1.1" xmlns="http://www.w3.org/2000/svg" p-id="12822" xmlns:xlink="http://www.w3.org/1999/xlink" width="200" height="200"><path d="M 204.8 860.843 h 568.832" fill="#ffffff" p-id="12823"></path><path d="M 136.533 217.429 h 705.365 a 34.1333 34.1333 0 0 1 34.1333 34.1333 v 432.469 A 22.6987 22.6987 0 0 1 853.333 706.731 H 125.099 A 22.6987 22.6987 0 0 1 102.4 684.032 V 251.563 a 34.1333 34.1333 0 0 1 34.1333 -34.1333 Z" fill="#fcfeff" p-id="12824"></path><path d="M 876.032 251.563 v 432.299 A 22.6987 22.6987 0 0 1 853.333 706.731 H 474.453 l 178.176 -489.301 h 189.269 a 34.1333 34.1333 0 0 1 34.1333 34.1333 Z" fill="#edf4ff" p-id="12825"></path><path d="M 716.8 860.843 H 261.632 a 57.0027 57.0027 0 0 1 57.0027 -56.832 h 341.333 A 56.832 56.832 0 0 1 716.8 860.843 Z" fill="#ffffff" p-id="12826"></path><path d="M 598.528 706.731 h -218.453 l -27.3067 97.28 h 273.067 l -27.3067 -97.28 Z" fill="#c3cfde" p-id="12827"></path><path d="M 876.032 251.563 v 68.2667 H 102.4 v -68.2667 a 34.1333 34.1333 0 0 1 34.1333 -34.1333 h 705.365 a 34.1333 34.1333 0 0 1 34.1333 34.1333 Z" fill="#96ddff" p-id="12828"></path><path d="M 841.899 217.429 H 652.629 l -37.2053 102.4 h 260.608 v -68.2667 a 34.1333 34.1333 0 0 0 -34.1333 -34.1333 Z" fill="#69baf9" p-id="12829"></path><path d="M 716.8 860.843 H 261.632 a 57.0027 57.0027 0 0 1 57.0027 -56.832 h 341.333 A 56.832 56.832 0 0 1 716.8 860.843 Z" fill="#edf4ff" p-id="12830"></path><path d="M 782.165 903.168 a 158.549 158.549 0 0 0 25.6 -2.048 a 21.8453 21.8453 0 0 1 22.6987 10.5813 a 22.016 22.016 0 0 0 30.208 8.02133 l 36.0107 -20.8213 a 22.1867 22.1867 0 0 0 7.85067 -30.0373 a 22.1867 22.1867 0 0 1 2.048 -25.088 a 160.256 160.256 0 0 0 25.6 -44.544 a 22.016 22.016 0 0 1 21.1627 -14.1653 a 22.1867 22.1867 0 0 0 22.1867 -22.1867 v -41.6427 a 22.1867 22.1867 0 0 0 -22.1867 -22.1867 a 22.016 22.016 0 0 1 -20.6507 -14.336 a 162.645 162.645 0 0 0 -25.6 -44.544 a 21.8453 21.8453 0 0 1 -2.56 -24.9173 a 22.3573 22.3573 0 0 0 -8.192 -30.3787 l -36.0107 -20.8213 a 22.016 22.016 0 0 0 -30.208 8.192 a 22.016 22.016 0 0 1 -22.6987 10.752 a 148.821 148.821 0 0 0 -51.2 0 a 22.016 22.016 0 0 1 -22.3573 -10.752 a 22.1867 22.1867 0 0 0 -30.208 -8.192 l -36.0107 20.8213 a 22.3573 22.3573 0 0 0 -8.192 30.3787 a 21.8453 21.8453 0 0 1 -2.048 24.9173 A 162.645 162.645 0 0 0 631.467 684.715 a 22.016 22.016 0 0 1 -20.48 15.0187 a 22.1867 22.1867 0 0 0 -22.1867 22.1867 v 40.96 a 22.1867 22.1867 0 0 0 22.1867 22.1867 a 22.016 22.016 0 0 1 20.6507 14.1653 a 160.256 160.256 0 0 0 25.6 44.544 a 22.1867 22.1867 0 0 1 2.048 25.088 a 22.1867 22.1867 0 0 0 8.192 30.208 l 36.0107 20.8213 a 22.016 22.016 0 0 0 30.3787 -8.02133 a 21.8453 21.8453 0 0 1 22.6987 -10.5813 a 158.549 158.549 0 0 0 25.6 1.87733 Z" fill="#79deb4" p-id="12831"></path><path d="M 975.531 721.067 v 41.6427 a 22.1867 22.1867 0 0 1 -22.1867 22.1867 a 22.1867 22.1867 0 0 0 -20.6507 14.336 a 162.645 162.645 0 0 1 -25.6 44.544 a 22.528 22.528 0 0 0 -4.94933 13.9947 a 20.992 20.992 0 0 0 2.90133 10.9227 a 22.3573 22.3573 0 0 1 -8.192 30.3787 l -36.0107 20.8213 a 22.016 22.016 0 0 1 -30.208 -8.192 a 22.016 22.016 0 0 0 -22.6987 -10.752 a 148.821 148.821 0 0 1 -51.2 0 a 22.016 22.016 0 0 0 -22.6987 10.752 a 22.1867 22.1867 0 0 1 -30.208 8.192 l -36.0107 -20.8213 a 22.3573 22.3573 0 0 1 -8.192 -30.3787 a 20.8213 20.8213 0 0 0 2.38933 -6.144 l 240.64 -241.152 a 21.6747 21.6747 0 0 0 4.43733 18.7733 a 162.645 162.645 0 0 1 25.6 44.544 a 22.1867 22.1867 0 0 0 20.6507 14.336 a 22.1867 22.1867 0 0 1 22.1867 22.016 Z" fill="#62cca1" p-id="12832"></path><path d="M 782.165 742.059 m -60.416 0 a 60.416 60.416 0 1 0 120.832 0 a 60.416 60.416 0 1 0 -120.832 0 Z" fill="#fcfeff" p-id="12833"></path><path d="M 159.232 268.629 m -17.0667 0 a 17.0667 17.0667 0 1 0 34.1333 0 a 17.0667 17.0667 0 1 0 -34.1333 0 Z" fill="#3d3d63" p-id="12834"></path><path d="M 273.067 268.629 m -17.0667 0 a 17.0667 17.0667 0 1 0 34.1333 0 a 17.0667 17.0667 0 1 0 -34.1333 0 Z" fill="#3d3d63" p-id="12835"></path><path d="M 216.235 268.629 m -17.0667 0 a 17.0667 17.0667 0 1 0 34.1333 0 a 17.0667 17.0667 0 1 0 -34.1333 0 Z" fill="#3d3d63" p-id="12836"></path><path d="M 341.333 516.267 l 51.2 -51.2 a 17.0667 17.0667 0 1 0 -24.2347 -24.2347 l -63.488 63.6587 a 17.0667 17.0667 0 0 0 0 24.064 l 63.488 63.6587 a 17.0667 17.0667 0 0 0 24.2347 0 a 17.0667 17.0667 0 0 0 0 -24.064 Z M 585.728 591.872 a 17.0667 17.0667 0 0 0 24.064 0 L 673.451 529.067 a 17.0667 17.0667 0 0 0 0 -24.064 l -63.6587 -63.6587 a 17.0667 17.0667 0 0 0 -24.064 24.2347 l 51.2 51.2 l -51.2 51.2 a 17.0667 17.0667 0 0 0 0 23.8933 Z M 529.067 446.293 a 17.0667 17.0667 0 0 0 -23.3813 6.31467 L 442.709 563.2 a 17.0667 17.0667 0 1 0 29.5253 17.0667 l 63.6587 -110.08 a 17.0667 17.0667 0 0 0 -6.82667 -23.8933 Z" fill="#3d3d63" p-id="12837"></path><path d="M 953.344 682.667 a 4.94933 4.94933 0 0 1 -4.608 -3.24267 a 178.005 178.005 0 0 0 -28.5013 -49.3227 a 4.94933 4.94933 0 0 1 0 -5.632 a 39.2533 39.2533 0 0 0 -14.336 -53.5893 l -12.8 -7.68 V 251.563 a 51.2 51.2 0 0 0 -51.2 -51.2 H 136.533 a 51.2 51.2 0 0 0 -51.2 51.2 v 432.469 a 39.936 39.936 0 0 0 39.7653 39.7653 H 358.4 l -17.0667 63.1467 h -22.6987 a 73.8987 73.8987 0 0 0 -71.8507 56.832 H 204.8 a 17.0667 17.0667 0 0 0 0 34.1333 h 434.688 a 36.1813 36.1813 0 0 0 1.19467 12.1173 a 38.4 38.4 0 0 0 18.2613 23.8933 l 36.0107 20.8213 a 39.2533 39.2533 0 0 0 53.5893 -14.5067 a 5.29067 5.29067 0 0 1 5.29067 -2.38933 a 166.229 166.229 0 0 0 56.6613 0 a 5.12 5.12 0 0 1 5.29067 2.56 a 39.2533 39.2533 0 0 0 34.1333 19.456 a 38.7413 38.7413 0 0 0 19.6267 -5.12 l 36.0107 -20.8213 a 39.0827 39.0827 0 0 0 18.2613 -23.8933 a 38.5707 38.5707 0 0 0 -3.92533 -29.696 a 5.12 5.12 0 0 1 0 -5.80267 a 179.541 179.541 0 0 0 28.5013 -49.152 a 4.77867 4.77867 0 0 1 4.608 -3.24267 a 39.424 39.424 0 0 0 39.2533 -39.2533 v -41.6427 A 39.2533 39.2533 0 0 0 953.344 682.667 Z M 119.467 251.563 a 17.0667 17.0667 0 0 1 17.0667 -17.0667 h 705.365 a 17.0667 17.0667 0 0 1 17.0667 17.0667 v 51.2 H 119.467 Z m 5.632 438.101 a 5.632 5.632 0 0 1 -5.632 -5.632 V 336.896 h 739.499 V 546.133 a 39.0827 39.0827 0 0 0 -43.1787 17.0667 a 4.94933 4.94933 0 0 1 -5.12 2.21867 a 175.275 175.275 0 0 0 -56.6613 0 a 4.77867 4.77867 0 0 1 -5.12 -2.21867 a 39.0827 39.0827 0 0 0 -53.5893 -14.336 l -36.0107 20.8213 a 38.2293 38.2293 0 0 0 -18.2613 23.7227 a 39.5947 39.5947 0 0 0 3.75467 29.8667 a 4.608 4.608 0 0 1 0 5.632 a 178.005 178.005 0 0 0 -28.5013 49.3227 a 4.94933 4.94933 0 0 1 -4.608 3.24267 a 39.0827 39.0827 0 0 0 -23.2107 7.68 Z M 580.267 786.944 H 375.467 l 17.0667 -63.1467 h 179.2 v 39.0827 a 39.5947 39.5947 0 0 0 8.53333 24.064 Z m -261.461 34.1333 h 303.787 a 187.733 187.733 0 0 0 13.312 22.6987 H 282.795 a 39.7653 39.7653 0 0 1 35.84 -22.6987 Z m 639.659 -58.1973 a 5.12 5.12 0 0 1 -5.12 5.12 a 39.424 39.424 0 0 0 -36.6933 25.2587 a 144.384 144.384 0 0 1 -22.8693 39.7653 a 39.424 39.424 0 0 0 -3.584 44.3733 a 4.43733 4.43733 0 0 1 0 3.75467 a 4.94933 4.94933 0 0 1 -2.38933 3.24267 L 852.309 904.533 a 5.12 5.12 0 0 1 -6.99733 -2.048 a 39.424 39.424 0 0 0 -40.448 -18.944 a 135.168 135.168 0 0 1 -45.3973 0 a 39.424 39.424 0 0 0 -40.448 19.1147 a 5.29067 5.29067 0 0 1 -6.99733 1.87733 l -36.0107 -20.8213 a 4.94933 4.94933 0 0 1 -2.38933 -3.24267 a 4.43733 4.43733 0 0 1 0 -3.75467 a 39.7653 39.7653 0 0 0 -3.584 -44.3733 a 142.507 142.507 0 0 1 -23.04 -39.7653 A 38.912 38.912 0 0 0 610.987 768 a 5.12 5.12 0 0 1 -5.12 -5.12 v -41.6427 a 4.94933 4.94933 0 0 1 5.12 -5.12 a 39.2533 39.2533 0 0 0 36.5227 -25.2587 a 140.117 140.117 0 0 1 23.04 -39.7653 a 39.7653 39.7653 0 0 0 3.584 -44.3733 a 4.77867 4.77867 0 0 1 0 -3.92533 a 4.43733 4.43733 0 0 1 2.38933 -3.072 l 36.0107 -20.8213 a 4.77867 4.77867 0 0 1 2.56 0 a 5.12 5.12 0 0 1 4.26667 2.38933 a 39.5947 39.5947 0 0 0 40.448 19.1147 a 135.168 135.168 0 0 1 45.3973 0 A 39.7653 39.7653 0 0 0 845.312 580.267 a 4.94933 4.94933 0 0 1 6.82667 -1.70667 l 36.0107 20.8213 a 4.43733 4.43733 0 0 1 2.38933 3.072 a 4.77867 4.77867 0 0 1 0 3.92533 a 39.2533 39.2533 0 0 0 3.584 44.2027 a 145.237 145.237 0 0 1 22.8693 39.936 A 39.5947 39.5947 0 0 0 953.344 716.8 a 4.94933 4.94933 0 0 1 5.12 5.12 Z" fill="#3d3d63" p-id="12838"></path><path d="M 782.165 664.576 a 77.4827 77.4827 0 1 0 77.4827 77.4827 a 77.4827 77.4827 0 0 0 -77.4827 -77.4827 Z m 0 120.832 a 43.3493 43.3493 0 1 1 43.3493 -43.3493 A 43.3493 43.3493 0 0 1 782.165 785.067 Z" fill="#3d3d63" p-id="12839"></path></svg>