<?xml version="1.0" standalone="no"?><!DOCTYPE svg PUBLIC "-//W3C//DTD SVG 1.1//EN" "http://www.w3.org/Graphics/SVG/1.1/DTD/svg11.dtd"><svg t="1711848372766" class="icon" viewBox="0 0 1024 1024" version="1.1" xmlns="http://www.w3.org/2000/svg" p-id="13048" xmlns:xlink="http://www.w3.org/1999/xlink" width="200" height="200"><path d="M239.49511719 324.00195287m-13.18359401 0a13.183594 13.183594 0 1 0 26.36718801 0 13.183594 13.183594 0 1 0-26.36718801 0Z" fill="#FA8C16" p-id="13049"></path><path d="M327.42968775 324.00195287m-13.183594 0a13.183594 13.183594 0 1 0 26.36718725 0 13.183594 13.183594 0 1 0-26.36718725 0Z" fill="#FA8C16" p-id="13050"></path><path d="M283.52832057 324.00195287m-13.18359401 0a13.183594 13.183594 0 1 0 26.36718725 0 13.183594 13.183594 0 1 0-26.36718725 0Z" fill="#FA8C16" p-id="13051"></path><path d="M380.16406225 515.29589869l39.55078125-39.55078125a13.183594 13.183594 0 1 0-18.72070262-18.72070338l-49.04296875 49.17480494a13.183594 13.183594 0 0 0 0 18.58886719l49.04296875 49.17480418a13.183594 13.183594 0 0 0 18.72070262 0 13.183594 13.183594 0 0 0 0-18.58886719zM568.953125 573.69921875a13.183594 13.183594 0 0 0 18.58886719 0L636.71679713 525.183594a13.183594 13.183594 0 0 0 0-18.58886718l-49.17480494-49.17480494a13.183594 13.183594 0 0 0-18.58886719 18.72070337l39.55078125 39.55078125-39.55078125 39.55078125a13.183594 13.183594 0 0 0 0 18.457031zM525.183594 461.24316381a13.183594 13.183594 0 0 0-18.06152394 4.87792994L458.47460912 551.55078125a13.183594 13.183594 0 1 0 22.8076177 13.183594l49.17480418-85.03417968a13.183594 13.183594 0 0 0-5.273437-18.45703176z" fill="#FA8C16" p-id="13052"></path><path d="M852.92773438 643.83593775a3.82324193 3.82324193 0 0 1-3.55957032-2.50488306 137.50488256 137.50488256 0 0 0-22.01660131-38.10058619 3.82324193 3.82324193 0 0 1 0-4.35058594 30.32226537 30.32226537 0 0 0-11.07421875-41.39648412l-9.88769531-5.93261719V310.81835963a39.55078125 39.55078125 0 0 0-39.55078125-39.55078125H221.96093725a39.55078125 39.55078125 0 0 0-39.55078125 39.55078125v334.07226537a30.84960938 30.84960938 0 0 0 30.71777394 30.71777318H393.34765625l-13.183594 48.77929713h-17.53417918a57.08496119 57.08496119 0 0 0-55.50292995 43.90136719H274.6953125a13.183594 13.183594 0 0 0 0 26.36718725h335.78613281a27.9492185 27.9492185 0 0 0 0.92285182 9.36035207 29.66308594 29.66308594 0 0 0 14.10644506 18.45703099l27.81738306 16.08398412a30.32226537 30.32226537 0 0 0 41.39648412-11.20605418 4.08691432 4.08691432 0 0 1 4.08691432-1.84570363 128.40820287 128.40820287 0 0 0 43.769531 0 3.95507813 3.95507813 0 0 1 4.08691431 1.97753906 30.32226537 30.32226537 0 0 0 26.36718725 15.02929688 29.92675756 29.92675756 0 0 0 15.16113307-3.95507813l27.8173823-16.08398412a30.19042994 30.19042994 0 0 0 14.10644582-18.45703099 29.79492213 29.79492213 0 0 0-3.03222707-22.93945313 3.95507813 3.95507813 0 0 1 0-4.48242213 138.691406 138.691406 0 0 0 22.01660207-37.96875 3.6914065 3.6914065 0 0 1 3.55957031-2.50488306 30.45410156 30.45410156 0 0 0 30.32226537-30.32226538v-32.167969A30.32226537 30.32226537 0 0 0 852.92773438 643.83593775zM208.777344 310.81835963a13.183594 13.183594 0 0 1 13.18359325-13.18359401h544.87793019a13.183594 13.183594 0 0 1 13.18359324 13.18359401v39.55078125H208.777344z m4.35058594 338.42285131a4.35058594 4.35058594 0 0 1-4.35058594-4.35058594V376.73632812h571.24511668V538.36718725a30.19042994 30.19042994 0 0 0-33.35449168 13.183594 3.82324193 3.82324193 0 0 1-3.95507812 1.71386744 135.39550807 135.39550807 0 0 0-43.76953176 0 3.6914065 3.6914065 0 0 1-3.95507812-1.71386744 30.19042994 30.19042994 0 0 0-41.39648412-11.07421875l-27.81738307 16.08398412a29.53124975 29.53124975 0 0 0-14.10644506 18.32519557 30.58593775 30.58593775 0 0 0 2.90039088 23.07128931 3.55957031 3.55957031 0 0 1 0 4.35058594 137.50488256 137.50488256 0 0 0-22.01660207 38.10058543 3.82324193 3.82324193 0 0 1-3.55957031 2.50488307 30.19042994 30.19042994 0 0 0-17.929687 5.93261718zM564.73437525 724.38769531H406.53125025l13.18359325-48.77929713h138.42773437v30.19042995a30.58593775 30.58593775 0 0 0 6.59179738 18.58886718z m-201.97265675 26.36718725h234.667969a145.019531 145.019531 0 0 0 10.28320313 17.53417994H334.94433619a30.71777318 30.71777318 0 0 1 27.68554688-17.53417994z m494.121094-44.95605443a3.95507813 3.95507813 0 0 1-3.95507813 3.95507812 30.45410156 30.45410156 0 0 0-28.3447263 19.511719 111.53320313 111.53320313 0 0 1-17.66601614 30.71777319 30.45410156 30.45410156 0 0 0-2.76855468 34.27734349 3.42773412 3.42773412 0 0 1 0 2.90039088 3.82324193 3.82324193 0 0 1-1.84570288 2.50488307L774.88085912 815.222656a3.95507813 3.95507813 0 0 1-5.40527318-1.58203125 30.45410156 30.45410156 0 0 0-31.24511719-14.63378907 104.4140625 104.4140625 0 0 1-35.06835912 0 30.45410156 30.45410156 0 0 0-31.24511719 14.76562526 4.08691432 4.08691432 0 0 1-5.40527394 1.45019506l-27.81738231-16.08398412a3.82324193 3.82324193 0 0 1-1.84570363-2.50488307 3.42773412 3.42773412 0 0 1 0-2.90039012 30.71777318 30.71777318 0 0 0-2.76855469-34.27734426 110.08300807 110.08300807 0 0 1-17.79785156-30.71777318A30.05859375 30.05859375 0 0 0 588.464844 709.75390625a3.95507813 3.95507813 0 0 1-3.95507812-3.95507813v-32.167969a3.82324193 3.82324193 0 0 1 3.95507812-3.95507812 30.32226537 30.32226537 0 0 0 28.21289012-19.51171825 108.23730443 108.23730443 0 0 1 17.79785156-30.71777394 30.71777318 30.71777318 0 0 0 2.76855469-34.2773435 3.6914065 3.6914065 0 0 1 0-3.03222631 3.42773412 3.42773412 0 0 1 1.84570363-2.37304687l27.81738231-16.08398488a3.6914065 3.6914065 0 0 1 1.97753906 0 3.95507813 3.95507813 0 0 1 3.29589869 1.84570363 30.58593775 30.58593775 0 0 0 31.24511719 14.76562449 104.4140625 104.4140625 0 0 1 35.06835912 0A30.71777318 30.71777318 0 0 0 769.47558594 564.73437525a3.82324193 3.82324193 0 0 1 5.27343775-1.31835962l27.81738231 16.08398412a3.42773412 3.42773412 0 0 1 1.84570363 2.37304687 3.6914065 3.6914065 0 0 1 0 3.03222707 30.32226537 30.32226537 0 0 0 2.76855469 34.14550731 112.19238256 112.19238256 0 0 1 17.66601537 30.84960937A30.58593775 30.58593775 0 0 0 852.92773438 670.203125a3.82324193 3.82324193 0 0 1 3.95507812 3.95507813z" fill="#1A329F" p-id="13053"></path><path d="M720.69628881 629.86132813a59.85351588 59.85351588 0 1 0 59.85351588 59.85351587 59.85351588 59.85351588 0 0 0-59.85351588-59.85351588z m0 93.33984374a33.48632787 33.48632787 0 1 1 33.48632863-33.48632787A33.48632787 33.48632787 0 0 1 720.69628881 722.93750025z" fill="#FA8C16" p-id="13054"></path></svg>